<svg version="1.1" xmlns="http://www.w3.org/2000/svg" viewBox="0 0 16382.881 16382.881">
<path fill="#002D3D" d="M141932.688,1034.63c83800.828,0,167601.563-19.608,251402.406,94.483 c2337.5,3.584,5477.375-1798.993,7131.969,1688.512c-1041.219,2449.829-2244.781,4844.392-3098.844,7358.42 C381897.125,55694.137,366460,101224.719,351051.344,146766c-734.594,2173.438-1142.938,4457.5-1936.375,7625.859 c16624.656,5939.156,29266.094,16145,35715.25,32669.828c6568.563,16826.109,4642.906,33186.875-3649.844,49034.141 c1044.844,2656.672,2054.063,5115.406,2981.219,7604.484c13545.406,36330.25,1151.813,73931.906-31348.656,95090.75 c-14545.656,9469.438-31066.875,12882.125-47812.781,15809.813c-15763.5,2756.5-31942.375,4480.656-47019.406,9446.281 c-18232.891,6005.125-35745.5,14429.75-53127.906,22731.406c-28392.406,13559.656-56330.203,28124.969-87883.852,33258.25 c-8321.242,0-16640.703,0-24961.953,0c-1982.719-549.156-3958.289-1126.906-5951.641-1638.625 c-31662.414-8146.5-54065.781-26365.156-63346.273-58619.5c-1708.121-5937.375-2558.598-12122.625-3803.133-18191.938 c0-7131.969,0-14263.938,0-21395.938c2854.59-24195.25,11371.949-46523.719,22376.611-68042.656 c928.938-1820.469,1515.543-3817.438,2346.41-5955.25c-1381.793-2011.203-2667.336-3974.266-4045.598-5867.844 c-7413.717-10195.156-10919.088-21515.406-10708.697-34181.766c488.539-29683.328,25865.932-54115.703,55602.719-53249.172 c30737.078,893.266,55321.031,27322.594,53193.891,57496.281c-1503.047,21328.141-11926.445,37152.297-31239.891,46268.781 c-6903.742,3257.469-8925.68,7700.75-8758.055,14618.781c313.781,12899.938,6188.789,22478.156,16799.383,30417.875 c25512.891-10915.5,46215.266-27147.906,62449.438-49692.078c-17040.094-14861.281-25186.609-32113.547-21538.609-53746.656 c3697.953-21930.828,17728.359-35412.047,37655.109-43744c-891.5-2988.281-1494.125-5263.422-2246.594-7488.563 c-9034.438-26705.734-18161.594-53379.313-27117.609-80111.773C156326.797,44987.285,149173.438,22995.777,141932.688,1034.63z  M65959.234,259606.438c-14436.891,25965.781-24298.641,52010-21486.879,81381.281 c3007.922,31400.313,26636.176,53081.594,58207.668,53981.969c16441.023,468.906,31881.758-3624.813,46589.695-10186.25 c24118.563-10758.563,47875.203-22331.969,71840.406-33440.125c21135.656-9793.906,43153.844-16487.313,66354.219-19504.156 c11741-1526.188,23494.5-3724.656,34905.656-6846.688c18475.406-5051.188,32329.281-16102.25,39013.75-34640.031 c4116.969-11412.969,4518.125-22948.938-181.844-35269.438c-16145.094,7556.344-31951.313,9193.125-47991.125,2378.563 c-16318-6935.891-26261.813-19764.563-32138.5-36075.406c-6572.156,0-12418.563,0-18769.625,0 c-10555.328,28355.016-31143.563,41768.438-61367.141,40523.938c-1891.734,2440.938-3710.391,4755.219-5493.438,7094.563 c-20112.188,26381.188-45446.766,45803.375-76479.797,57767.25c-4502.07,1736.625-8290.945,1766.969-12587.961-709.656 c-18013.594-10396.594-29840.211-25147.344-32985.422-46049.344c-873.664-5817.969-937.867-11755.313-1417.477-18232.969 C70479.141,261239.688,68642.672,260576.438,65959.234,259606.438z M271105.375,61679.676 c16020.219,32559.277,30999.188,63002.121,45703.531,92892.281c6358.125-171.172,6677.281-4357.609,7757.813-7526.016 c12714.531-37330.594,25334.563-74691.484,37926.125-112063.094c805.844-2396.328,1180.313-4938.875,2144.906-9093.266 c-63094.875-17.816-124904.188-7.117-186857.922-8.91c1216,11300.629,39181.328,122172.625,43456.922,127765.875 c5012,848.703,5655.656-3519.641,7107.016-6425.906c12320.5-24682.008,24478.766-49446.039,36719.047-74170.82 C266608.688,69922.438,268331.063,66882.438,271105.375,61679.676z M179159.875,207300.484 c206.813,16959.828,13338.578,30244.922,29877.656,30225.344c16153.891-19.594,30189.656-14058.938,30237.859-30244.922 c48.094-17061.484-13472.328-29965.047-31122.203-29697.578C191592.688,177834.703,178958.391,190782.797,179159.875,207300.484z  M304486.594,207480.578c112.406,16601.453,13837.875,30344.828,30031.063,30075.531 c16357.188-269.188,29977.438-14176.578,29840.188-30474.922c-135.531-16679.922-13566.813-29888.359-30241.375-29735.031 C317169.031,177503.078,304370.719,190517.141,304486.594,207480.578z M52431.645,206842.25 c-147.984,16822.609,12880.371,30467.875,29330.285,30719.25c16096.867,244.234,30466.039-13711.266,30631.867-29752.859 c171.172-16605.047-13030.125-30075.547-29676.188-30287.719C65631.164,177303.391,52581.445,189937.641,52431.645,206842.25z  M271948.719,120051.391c-706.031,7.086-1410.344,14.258-2116.406,21.398 c-7748.906,15731.352-15497.781,31462.742-22487.156,45651.82c6270.828,11215.031,11553.813,20668.484,16995.5,30401.828 c4960.344,0,10205.906,0,14729.375,0c5422.063-9940.188,10473.281-19202.859,15904.313-29157.328 C287460.781,151656.75,279704.813,135854.063,271948.719,120051.391z"/>
<path fill="#002D3D" d="M5532.804,9.173c3287.786,0,6575.573-0.768,9863.356,3.707c91.709,0.143,214.898-70.58,279.809,66.246 c-40.852,96.115-88.07,190.063-121.574,288.697c-606.984,1785.826-1212.633,3572.145-1817.166,5358.877 c-28.824,85.273-44.842,174.885-75.971,299.191c652.242,233.012,1148.205,633.424,1401.229,1281.746 c257.703,660.144,182.158,1302.033-143.197,1923.773c40.994,104.23,80.588,200.694,116.963,298.35 c531.436,1425.359,45.191,2900.597-1229.912,3730.725c-570.674,371.521-1218.857,505.408-1875.855,620.274 c-618.455,108.146-1253.207,175.79-1844.729,370.609c-715.338,235.601-1402.414,566.13-2084.385,891.828 c-1113.929,531.993-2210.021,1103.437-3447.976,1304.83c-326.469,0-652.87,0-979.342,0 c-77.787-21.543-155.296-44.207-233.501-64.284c-1242.224-319.613-2121.184-1034.392-2485.287-2299.838 c-67.015-232.944-100.383-475.612-149.21-713.732c0-279.81,0-559.623,0-839.433c111.994-949.261,446.16-1825.282,877.909-2669.544 c36.447-71.422,59.458-149.769,92.059-233.643c-54.214-78.906-104.653-155.925-158.726-230.213 c-290.863-399.991-428.392-844.123-420.137-1341.066c19.167-1164.576,1014.809-2123.141,2181.48-2089.145 c1205.917,35.049,2170.429,1071.959,2086.974,2255.771c-58.97,836.775-467.915,1457.607-1225.644,1815.279 c-270.857,127.803-350.183,302.125-343.608,573.542c12.31,506.109,242.807,881.896,659.097,1193.396 c1000.954-428.253,1813.178-1065.102,2450.1-1949.588c-668.539-583.058-988.153-1259.921-845.032-2108.657 c145.083-860.424,695.541-1389.334,1477.338-1716.225c-34.979-117.24-58.623-206.502-88.142-293.801 c-354.453-1047.756-712.542-2094.248-1063.915-3143.055C6097.534,1733.583,5816.884,870.784,5532.804,9.173z M2552.111,10153.809 c-566.407,1018.726-953.316,2040.525-843.001,3192.859c118.012,1231.938,1045.026,2082.568,2283.682,2117.896 c645.035,18.396,1250.826-142.217,1827.868-399.642c946.253-422.097,1878.305-876.16,2818.543-1311.967 c829.219-384.25,1693.068-646.854,2603.293-765.215c460.643-59.879,921.773-146.131,1369.469-268.617 c724.852-198.176,1268.385-631.745,1530.639-1359.046c161.523-447.769,177.26-900.362-7.137-1383.736 c-633.426,296.457-1253.557,360.677-1882.848,93.315c-640.211-272.116-1030.34-775.429-1260.904-1415.357 c-257.846,0-487.223,0-736.393,0c-414.121,1112.461-1221.867,1638.718-2407.638,1589.889 c-74.221,95.765-145.572,186.565-215.526,278.345c-789.069,1035.024-1783.028,1797.018-3000.559,2266.402 c-176.63,68.135-325.281,69.322-493.866-27.839c-706.734-407.896-1170.73-986.619-1294.131-1806.675 c-34.277-228.259-36.792-461.2-55.61-715.338C2729.442,10217.886,2657.39,10191.864,2552.111,10153.809z M10600.68,2388.481 c628.527,1277.41,1216.201,2471.783,1793.102,3644.475c249.453-6.715,261.973-170.967,304.367-295.27 c498.832-1464.605,993.959-2930.398,1487.967-4396.609c31.617-94.02,46.307-193.77,84.152-356.76 c-2475.42-0.699-4900.408-0.281-7331.06-0.35c47.707,443.361,1537.212,4793.24,1704.96,5012.684 c196.637,33.297,221.891-138.088,278.832-252.109c483.373-968.359,960.383-1939.932,1440.607-2909.973 C10424.26,2711.872,10491.832,2592.604,10600.68,2388.481z M6993.352,8101.674c8.113,665.391,523.316,1186.609,1172.199,1185.842 c633.771-0.772,1184.441-551.581,1186.33-1186.612c1.891-669.379-528.564-1175.629-1221.026-1165.137 C7481.132,6945.632,6985.448,7453.63,6993.352,8101.674z M11910.338,8108.738c4.41,651.329,542.906,1190.527,1178.217,1179.964 c641.746-10.563,1176.121-556.196,1170.73-1195.635c-5.313-654.41-532.268-1172.619-1186.469-1166.602 C12407.914,6932.618,11905.791,7443.206,11910.338,8108.738z M2021.38,8083.695c-5.807,660.005,505.339,1195.354,1150.726,1205.218 c631.534,9.583,1195.283-537.938,1201.789-1167.305c6.715-651.471-511.216-1179.963-1164.294-1188.291 C2539.241,6924.784,2027.256,7420.47,2021.38,8083.695z M10633.77,4678.599c-27.701,0.279-55.332,0.561-83.035,0.838 c-304.016,617.195-608.029,1234.391-882.246,1791.076c246.023,440.004,453.295,810.895,666.789,1192.765 c194.609,0,400.414,0,577.883,0c212.729-389.987,410.904-753.39,623.977-1143.94 C11242.355,5918.583,10938.064,5298.589,10633.77,4678.599z"/>
</svg>
